<svg xmlns="http://www.w3.org/2000/svg" viewBox="0 0 400 300" width="100%" height="100%">
  <defs>
    <linearGradient id="bgLatte" x1="0%" y1="0%" x2="100%" y2="100%">
      <stop offset="0%" stop-color="#faedcd" />
      <stop offset="100%" stop-color="#e9edc9" />
    </linearGradient>
    <radialGradient id="latteBase" cx="50%" cy="50%" r="50%">
      <stop offset="60%" stop-color="#99582a" />
      <stop offset="100%" stop-color="#6f4e37" />
    </radialGradient>
  </defs>
  <rect width="400" height="300" rx="12" fill="url(#bgLatte)" />
  <circle cx="200" cy="150" r="105" fill="#3d2314" opacity="0.1" />
  <circle cx="200" cy="148" r="95" fill="#fdfbf7" stroke="#e0e1dd" stroke-width="4" />
  <circle cx="200" cy="148" r="80" fill="url(#latteBase)" />
  <ellipse cx="200" cy="150" rx="22" ry="40" fill="#fffefb" />
  <circle cx="200" cy="120" r="14" fill="#fffefb" />
  <circle cx="200" cy="102" r="9" fill="#fffefb" />
  <circle cx="200" cy="90" r="5" fill="#fffefb" />
  <path d="M200 178 C195 190 205 190 200 178 Z" fill="#fffefb" />
  <path d="M188 140 C175 135 175 145 188 152" fill="none" stroke="#fffefb" stroke-width="6" stroke-linecap="round" />
  <path d="M212 140 C225 135 225 145 212 152" fill="none" stroke="#fffefb" stroke-width="6" stroke-linecap="round" />
  <path d="M190 156 C180 152 180 160 190 166" fill="none" stroke="#fffefb" stroke-width="5" stroke-linecap="round" />
  <path d="M210 156 C220 152 220 160 210 166" fill="none" stroke="#fffefb" stroke-width="5" stroke-linecap="round" />
  <path d="M200 80 L200 185" stroke="#99582a" stroke-width="1.8" stroke-linecap="round" />
  <path d="M295 135 C320 135 320 165 295 165" fill="none" stroke="#fdfbf7" stroke-width="12" stroke-linecap="round" />
</svg>
