<svg xmlns="http://www.w3.org/2000/svg" viewBox="0 0 400 300" width="100%" height="100%">
  <defs>
    <linearGradient id="bgEspresso" x1="0%" y1="0%" x2="100%" y2="100%">
      <stop offset="0%" stop-color="#fdfbf7" />
      <stop offset="100%" stop-color="#faedcd" />
    </linearGradient>
    <linearGradient id="crema" x1="0%" y1="0%" x2="100%" y2="0%">
      <stop offset="0%" stop-color="#c68b59" />
      <stop offset="50%" stop-color="#e0a96d" />
      <stop offset="100%" stop-color="#8c531b" />
    </linearGradient>
  </defs>
  <rect width="400" height="300" rx="12" fill="url(#bgEspresso)" />
  <ellipse cx="200" cy="245" rx="130" ry="16" fill="#3d2314" opacity="0.15" />
  <ellipse cx="200" cy="225" rx="110" ry="18" fill="#d4a373" />
  <ellipse cx="200" cy="222" rx="95" ry="12" fill="#fff" />
  <path d="M130 145 C130 220 270 220 270 145 Z" fill="#2b1810" />
  <ellipse cx="200" cy="145" rx="70" ry="16" fill="#4a2c11" />
  <ellipse cx="200" cy="145" rx="64" ry="13" fill="url(#crema)" />
  <ellipse cx="190" cy="144" rx="20" ry="6" fill="#8c531b" opacity="0.6" />
  <path d="M265 155 C295 155 295 195 260 195" fill="none" stroke="#2b1810" stroke-width="10" stroke-linecap="round" />
  <path d="M185 110 Q180 85 190 60" fill="none" stroke="#b08968" stroke-width="3" stroke-linecap="round" opacity="0.5" />
  <path d="M210 105 Q215 80 205 55" fill="none" stroke="#b08968" stroke-width="3" stroke-linecap="round" opacity="0.5" />
  <g fill="#3d2314">
    <ellipse cx="90" cy="230" rx="12" ry="8" transform="rotate(-15 90 230)" />
    <path d="M88 224 Q90 230 92 236" stroke="#faedcd" stroke-width="1.2" fill="none" />
    <ellipse cx="115" cy="235" rx="11" ry="7" transform="rotate(30 115 235)" />
    <path d="M113 230 Q115 235 117 240" stroke="#faedcd" stroke-width="1.2" fill="none" />
  </g>
</svg>
